<svg width="180" height="180" viewBox="0 0 180 180" fill="none" xmlns="http://www.w3.org/2000/svg">
<g style="mix-blend-mode:soft-light">
<path d="M123.122 64.8538C123.122 60.6457 120.112 56.1877 113.84 52.5965C107.663 49.0593 98.9096 46.7674 89.0629 46.7674C79.2161 46.7674 70.4629 49.0593 64.2853 52.5965C58.2094 56.0755 55.1951 60.3679 55.0127 64.4586L55.0036 64.8538L55.0127 65.249C55.1953 69.3396 58.2096 73.6322 64.2853 77.1112C70.4629 80.6482 79.2162 82.9402 89.0629 82.9402C98.9095 82.9402 107.663 80.6482 113.84 77.1112C120.112 73.5199 123.122 69.0619 123.122 64.8538ZM89.0629 28.4402C77.095 28.4402 68.2509 31.3576 62.4476 34.2141C59.5407 35.645 57.3877 37.0652 55.9846 38.1056C55.6011 38.3901 55.2747 38.647 55.0036 38.8667V51.2601C56.7693 49.6157 58.8126 48.1464 61.0346 46.874C68.3711 42.6731 78.2881 40.1792 89.0629 40.1792C99.8377 40.1792 109.755 42.6731 117.091 46.874C119.313 48.1464 121.356 49.6157 123.122 51.2601V38.8667C122.851 38.647 122.525 38.3901 122.141 38.1056C120.738 37.0652 118.585 35.645 115.678 34.2141C109.875 31.3576 101.031 28.4402 89.0629 28.4402ZM133.577 32.7821C133.577 26.8798 129.387 20.8963 121.228 16.2031C113.159 11.5625 101.794 8.58726 89.0629 8.58726C76.3314 8.58726 64.9665 11.5625 56.898 16.2031C48.7382 20.8963 44.5488 26.8798 44.5486 32.7821C44.5486 36.0875 45.8515 39.4079 48.4436 42.5248V35.988L49.4173 35.0211L51.7236 37.3648C49.4521 35.0578 49.4192 35.0192 49.4192 35.0192L49.4228 35.0174L49.4283 35.0101C49.4328 35.0056 49.4388 35.0011 49.4448 34.9953C49.4571 34.9833 49.4721 34.9671 49.4905 34.9494C49.5275 34.9139 49.5772 34.867 49.6388 34.8097C49.7619 34.6952 49.9349 34.5389 50.1568 34.3465C50.6012 33.9611 51.2451 33.431 52.0878 32.806C53.7738 31.5557 56.2631 29.9202 59.5612 28.2968C66.1683 25.0447 75.9941 21.852 89.0629 21.852C102.132 21.852 111.957 25.0447 118.565 28.2968C121.863 29.9202 124.352 31.5557 126.038 32.806C126.881 33.431 127.525 33.9611 127.969 34.3465C128.191 34.5389 128.364 34.6952 128.487 34.8097C128.549 34.867 128.598 34.9139 128.635 34.9494C128.654 34.9671 128.669 34.9833 128.681 34.9953C128.687 35.0011 128.693 35.0056 128.697 35.0101L128.703 35.0174L128.707 35.0192C128.707 35.0192 128.674 35.0578 126.402 37.3648L128.708 35.0211L129.682 35.988V42.5248C132.274 39.4079 133.577 36.0875 133.577 32.7821ZM140.137 32.7821C140.137 40.1866 135.968 46.6434 129.682 51.5891V64.8538L129.666 65.5615C129.345 72.8407 124.107 78.8161 117.091 82.8336C109.755 87.0345 99.8377 89.5284 89.0629 89.5284C78.2881 89.5284 68.3711 87.0345 61.0346 82.8336C53.7926 78.6866 48.4437 72.4536 48.4436 64.8538V51.5891C42.1574 46.6434 37.9886 40.1866 37.9886 32.7821C37.9888 23.503 44.4987 15.742 53.6363 10.4862C62.8659 5.17766 75.3986 1.99902 89.0629 1.99902C102.727 1.99902 115.26 5.17766 124.489 10.4862C133.627 15.742 140.137 23.503 140.137 32.7821Z" fill="url(#paint0_linear_1_16)"/>
<path d="M89.6248 52.8226C94.9865 52.8226 100.004 53.8938 103.801 55.7766C107.048 57.3869 110.23 60.0593 110.806 63.817L169.472 142.615L164.219 146.56L108.144 71.2472C106.898 72.51 105.358 73.5285 103.801 74.3005C100.004 76.1833 94.9865 77.2527 89.6248 77.2527C84.2634 77.2527 79.2477 76.1831 75.4505 74.3005C73.9024 73.5329 72.3703 72.5221 71.1272 71.2692L15.7937 146.543L10.5149 142.631L68.4421 63.8299C69.0127 60.0651 72.199 57.3887 75.4505 55.7766C79.2477 53.8939 84.2632 52.8226 89.6248 52.8226ZM89.6248 59.4108C85.0493 59.4108 81.0683 60.3368 78.3534 61.6828C75.4314 63.1317 74.9127 64.5156 74.9124 65.0376C74.9124 65.5593 75.4309 66.9432 78.3534 68.3924C81.0683 69.7385 85.0493 70.6644 89.6248 70.6645C94.2004 70.6645 98.1812 69.7385 100.896 68.3924C103.819 66.9431 104.339 65.5593 104.339 65.0376C104.339 64.5156 103.818 63.1318 100.896 61.6828C98.1812 60.3368 94.2002 59.4108 89.6248 59.4108Z" fill="url(#paint1_linear_1_16)"/>
<path d="M96.7174 171.323C98.528 171.274 100.035 172.708 100.083 174.527C100.131 176.345 98.7022 177.859 96.8913 177.907C94.6197 177.968 92.3213 177.999 90 177.999C87.6787 177.999 85.3803 177.968 83.1087 177.907C81.2978 177.859 79.8686 176.345 79.9166 174.527C79.965 172.708 81.472 171.274 83.2826 171.323C85.4961 171.381 87.7366 171.411 90 171.411C92.2634 171.411 94.5039 171.381 96.7174 171.323ZM51.1818 171.558C51.4629 169.761 53.1409 168.533 54.9304 168.815C59.1437 169.48 63.5869 170.03 68.2151 170.449C70.019 170.613 71.35 172.213 71.1876 174.025C71.0247 175.837 69.4299 177.174 67.6257 177.01C62.8621 176.578 58.276 176.011 53.9127 175.323C52.1232 175.04 50.9007 173.355 51.1818 171.558ZM125.07 168.815C126.859 168.533 128.537 169.761 128.818 171.558C129.099 173.355 127.877 175.04 126.087 175.323C121.724 176.011 117.138 176.578 112.374 177.01C110.57 177.174 108.975 175.837 108.812 174.025C108.65 172.213 109.981 170.613 111.785 170.449C116.413 170.03 120.856 169.48 125.07 168.815ZM23.5123 163.437C24.2151 161.76 26.1386 160.973 27.8081 161.679C31.373 163.186 35.555 164.574 40.2655 165.802C42.0188 166.259 43.0708 168.058 42.6157 169.819C42.1605 171.58 40.3697 172.636 38.6164 172.179C33.6681 170.889 29.1777 169.406 25.2639 167.751C23.5944 167.045 22.8094 165.113 23.5123 163.437ZM152.192 161.679C153.861 160.973 155.785 161.76 156.488 163.437C157.191 165.113 156.406 167.045 154.736 167.751C150.822 169.406 146.332 170.889 141.384 172.179C139.63 172.636 137.839 171.58 137.384 169.819C136.929 168.058 137.981 166.259 139.734 165.802C144.445 164.574 148.627 163.186 152.192 161.679ZM8 150.234C8 147.128 9.29466 144.33 11.3075 141.927C12.4739 140.536 14.5432 140.357 15.9291 141.528C17.3148 142.7 17.4925 144.778 16.3263 146.17C15.0282 147.719 14.56 149.067 14.56 150.234C14.56 151.401 15.0282 152.749 16.3263 154.299C17.4925 155.691 17.3148 157.769 15.9291 158.94C14.5432 160.111 12.4739 159.933 11.3075 158.541C9.29467 156.139 8 153.341 8 150.234ZM165.44 150.234C165.44 149.067 164.972 147.719 163.674 146.17C162.507 144.778 162.685 142.7 164.071 141.528C165.457 140.357 167.526 140.536 168.693 141.927C170.705 144.33 172 147.128 172 150.234C172 153.341 170.705 156.139 168.693 158.541C167.526 159.933 165.457 160.111 164.071 158.94C162.685 157.769 162.507 155.691 163.674 154.299C164.972 152.749 165.44 151.401 165.44 150.234ZM38.6164 128.289C40.3697 127.832 42.1605 128.889 42.6157 130.65C43.0708 132.411 42.0188 134.209 40.2655 134.666C35.555 135.895 31.373 137.282 27.8081 138.789C26.1386 139.495 24.2151 138.709 23.5123 137.032C22.8094 135.355 23.5944 133.424 25.2639 132.718C29.1777 131.063 33.6681 129.58 38.6164 128.289ZM137.384 130.65C137.839 128.889 139.63 127.832 141.384 128.289C146.332 129.58 150.822 131.063 154.736 132.718C156.406 133.424 157.191 135.355 156.488 137.032C155.785 138.709 153.861 139.495 152.192 138.789C148.627 137.282 144.445 135.895 139.734 134.666C137.981 134.209 136.929 132.411 137.384 130.65ZM67.6257 123.459C69.4299 123.295 71.0247 124.632 71.1876 126.444C71.35 128.256 70.019 129.856 68.2151 130.019C63.5869 130.439 59.1437 130.989 54.9304 131.653C53.1409 131.936 51.4629 130.708 51.1818 128.911C50.9007 127.114 52.1232 125.428 53.9127 125.146C58.276 124.458 62.8621 123.89 67.6257 123.459ZM112.374 123.459C117.138 123.89 121.724 124.458 126.087 125.146C127.877 125.428 129.099 127.114 128.818 128.911C128.537 130.708 126.859 131.936 125.07 131.653C120.856 130.989 116.413 130.439 111.785 130.019C109.981 129.856 108.65 128.256 108.812 126.444C108.975 124.632 110.57 123.295 112.374 123.459ZM90 122.47C92.3213 122.47 94.6197 122.501 96.8913 122.562C98.7022 122.61 100.131 124.123 100.083 125.942C100.035 127.76 98.528 129.194 96.7174 129.146C94.5039 129.087 92.2634 129.058 90 129.058C87.7366 129.058 85.4961 129.087 83.2826 129.146C81.472 129.194 79.965 127.76 79.9166 125.942C79.8686 124.123 81.2978 122.61 83.1087 122.562C85.3803 122.501 87.6787 122.47 90 122.47Z" fill="url(#paint2_linear_1_16)"/>
</g>
<defs>
<linearGradient id="paint0_linear_1_16" x1="95.4106" y1="39.8029" x2="95.4106" y2="163.344" gradientUnits="userSpaceOnUse">
<stop stop-color="white"/>
<stop offset="1" stop-color="white" stop-opacity="0"/>
</linearGradient>
<linearGradient id="paint1_linear_1_16" x1="95.4106" y1="39.8029" x2="95.4106" y2="163.344" gradientUnits="userSpaceOnUse">
<stop stop-color="white"/>
<stop offset="1" stop-color="white" stop-opacity="0"/>
</linearGradient>
<linearGradient id="paint2_linear_1_16" x1="95.4106" y1="39.8029" x2="95.4106" y2="163.344" gradientUnits="userSpaceOnUse">
<stop stop-color="white"/>
<stop offset="1" stop-color="white" stop-opacity="0"/>
</linearGradient>
</defs>
</svg>
